<?xml version="1.0" encoding="UTF-8" standalone="no"?>
<!-- Created with Inkscape (http://www.inkscape.org/) -->

<svg
   width="1920"
   height="1920"
   viewBox="0 0 507.99999 508"
   version="1.1"
   id="svg1"
   xml:space="preserve"
   inkscape:version="1.4.2 (f4327f4, 2025-05-13)"
   sodipodi:docname="aUREMAX LOGO.svg"
   inkscape:export-filename="aUREMAX LOGO_90DPI.png"
   inkscape:export-xdpi="90"
   inkscape:export-ydpi="90"
   xmlns:inkscape="http://www.inkscape.org/namespaces/inkscape"
   xmlns:sodipodi="http://sodipodi.sourceforge.net/DTD/sodipodi-0.dtd"
   xmlns="http://www.w3.org/2000/svg"
   xmlns:svg="http://www.w3.org/2000/svg"><sodipodi:namedview
     id="namedview1"
     pagecolor="#ffffff"
     bordercolor="#000000"
     borderopacity="0.25"
     inkscape:showpageshadow="2"
     inkscape:pageopacity="0.0"
     inkscape:pagecheckerboard="0"
     inkscape:deskcolor="#d1d1d1"
     inkscape:document-units="mm"
     inkscape:zoom="0.35355339"
     inkscape:cx="762.26111"
     inkscape:cy="504.87424"
     inkscape:window-width="1920"
     inkscape:window-height="1009"
     inkscape:window-x="-8"
     inkscape:window-y="-8"
     inkscape:window-maximized="1"
     inkscape:current-layer="layer1"
     inkscape:export-bgcolor="#ffffff00" /><defs
     id="defs1" /><g
     inkscape:label="Layer 1"
     inkscape:groupmode="layer"
     id="layer1"><path
       id="text1"
       style="font-weight:bold;font-size:46.3559px;line-height:1.9;font-family:Montserrat;-inkscape-font-specification:'Montserrat Bold';letter-spacing:0.579452px;display:inline;fill:#062036;fill-opacity:1;stroke:#000000;stroke-width:0.264583"
       d="m 240.69298,47.840615 -4.19255,22.288272 0.91185,10e-4 c -7.62014,1.170308 -15.09676,3.140908 -22.30682,5.87937 l -12.37032,-16.03662 -22.76945,10.963949 5.78313,21.7736 c -5.52578,4.389606 -10.619,9.301684 -15.20954,14.668644 l -19.27935,-7.532628 -13.90005,21.165728 15.43699,15.01245 c -2.61785,6.16256 -4.67213,12.55131 -6.13745,19.08737 l -21.42179,3.75907 -0.9758,25.33332 20.11435,4.6279 c 0.57833,6.76361 1.77616,13.45933 3.57829,20.00228 l -15.80936,13.83192 12.21972,22.18575 6.73522,-2.22955 19.70484,-33.75498 c -3.31754,-9.44008 -5.02964,-19.40956 -5.02962,-29.48901 7e-5,-48.94981 39.52665,-88.631371 88.28499,-88.631161 48.75813,7.1e-5 88.2844,39.681551 88.28447,88.631161 10e-6,10.79444 -1.96385,21.45681 -5.75425,31.47417 l 19.08697,32.69561 5.52526,1.99655 13.35335,-21.5173 -14.81654,-13.68642 c 2.06734,-7.11187 3.41715,-14.41441 4.02906,-21.79742 l 18.90852,-4.4736 -0.49873,-25.34731 -20.69251,-3.49966 c -1.5548,-6.96911 -3.77881,-13.77051 -6.64084,-20.30881 l 14.28223,-14.65622 -13.93667,-21.141387 -18.13386,7.653787 c -4.68676,-5.39959 -9.88524,-10.32908 -15.52209,-14.718868 l 6.21069,-19.856786 -21.96487,-12.507963 -13.52613,16.03662 c -6.97228,-2.589228 -14.18787,-4.462791 -21.53628,-5.592002 L 265.94578,47.84058 Z m 1.80204,60.600215 -14.16979,24.421 v 5.2e-4 l -51.69543,89.09458 -12.38013,21.33659 v 5.2e-4 l -9.00813,15.52454 15.50817,15.30344 8.16075,-13.98 11.37131,-19.47829 62.82538,-107.62067 63.42571,108.96171 11.29756,19.40891 7.6615,13.16192 15.53447,-15.70369 -8.2247,-14.08978 -12.29761,-21.06579 -52.10288,-89.25561 -15.15797,-25.96657 z m 10.8241,52.02116 -53.70377,88.6876 -11.38988,18.80881 -7.82913,12.92943 19.91063,10.44565 6.85642,-11.96429 c 9.89121,4.67555 20.42102,7.84582 31.24274,9.40647 l 2.71544,12.33968 25.25228,-0.14394 2.1935,-12.03626 c 10.99644,-1.46769 21.70874,-4.59552 31.77397,-9.27755 l 6.33035,10.56474 19.79561,-9.56439 -7.36907,-12.10876 -11.4167,-18.75961 z m -0.68956,39.56756 36.3915,60.73536 c -11.04058,4.77989 -22.93735,7.24537 -34.9608,7.24526 -12.39786,5e-5 -24.65673,-2.6214 -35.97839,-7.69366 z M 53.785778,326.2224 28.046112,393.76913 h 15.939335 l 3.869692,-11.42581 h 26.240977 l 3.894448,11.42581 H 92.807621 L 68.569827,326.2224 Z m 44.343379,0 v 37.82627 c 0,9.90685 -0.198412,17.52984 4.421543,22.86922 4.61996,5.3394 13.5358,7.08113 21.73073,7.08113 8.19493,0 14.60215,-1.74173 19.2221,-7.08113 4.61996,-5.33938 6.14424,-12.96335 6.00593,-22.86922 l -0.52813,-37.82627 h -13.85982 l 0.26407,37.24688 c -0.31886,6.42504 0.72061,11.06507 -1.53436,13.89561 -2.25499,2.83051 -5.41731,4.24577 -9.48727,4.24577 -4.06996,0 -7.23229,-1.41526 -9.48727,-4.24577 -2.25499,-2.83054 -3.38283,-7.46261 -3.38283,-13.89561 V 326.2224 Z m 62.310653,0 v 67.54673 h 13.3647 v -24.77827 l 9.10819,0.0694 v 0 l 12.12689,24.70889 h 14.63551 l -12.29193,-25.10654 v 0 c 2.87675,-1.35988 1.05831,-0.53631 3.00323,-1.41716 3.73996,-1.69379 5.43931,-3.98874 7.47428,-7.15051 2.03498,-3.21823 2.65613,-7.95753 2.65613,-12.36143 0,-6.71877 -2.22764,-11.96952 -6.68261,-15.75236 -4.45495,-3.83929 -10.69704,-5.75873 -18.72697,-5.75873 z m 61.13989,0 v 67.54673 h 41.82084 V 381.2244 H 234.8624 v -15.10203 h 24.33166 V 353.96443 H 234.8624 v -15.19782 h 22.33724 5.46956 V 326.2224 Z m 52.16322,0 v 67.54673 h 14.04189 l 0.002,-38.80125 19.60582,30.60016 19.40623,-31.37942 -0.0248,39.58051 h 14.04188 l -0.1702,-67.54673 -14.47511,0.0663 -18.68314,32.70907 -18.2597,-32.77535 z m 99.55264,0 -25.74018,67.54673 h 15.18891 l 3.87279,-11.29067 h 26.43541 l 3.83978,11.29067 H 412.3174 L 387.61543,326.2224 Z m 44.41249,0 20.25567,33.15229 -21.32844,34.39444 h 16.13842 l 12.92476,-23.21769 13.12539,23.21769 h 16.22093 L 453.5018,358.84086 473.64245,326.2224 H 457.9089 l -11.90563,21.66176 -13.11559,-21.66176 z m -243.90354,13.57666 10.89011,0.0223 c 4.12496,0.008 6.6766,0.008 8.71158,1.81481 2.03499,1.80673 2.59063,2.95522 2.59063,6.22991 0,3.21823 -0.0275,5.62647 -2.0625,7.48966 -2.03498,1.80672 -5.11474,2.71005 -9.23971,2.71005 h -10.89011 z m -112.870916,3.93045 8.800287,25.81693 H 52.189524 Z m 318.958446,0.0482 8.58263,25.23857 h -17.24006 z m -136.28403,73.15271 c -2.67834,0 -4.91044,0.46363 -6.69601,1.39075 -1.7585,0.89621 -3.08418,2.11654 -3.97697,3.66173 -0.86573,1.51429 -1.29815,3.19876 -1.29815,5.053 0,1.73062 0.29758,3.15239 0.89277,4.26493 0.62224,1.11254 1.42018,2.00842 2.39412,2.68831 0.97396,0.67989 2.04259,1.23615 3.20592,1.6688 1.19037,0.43266 2.36701,0.80366 3.53033,1.1127 1.19037,0.27813 2.27271,0.5874 3.24666,0.92734 0.97395,0.30904 1.75871,0.7261 2.3539,1.25147 0.59519,0.49447 0.89276,1.17422 0.89276,2.03953 0,0.67989 -0.18961,1.28271 -0.56836,1.80808 -0.37876,0.52537 -0.97392,0.94243 -1.78553,1.25147 -0.78458,0.27813 -1.82635,0.41733 -3.12495,0.41733 -1.7044,0 -3.39507,-0.30927 -5.07242,-0.92734 -1.65029,-0.64899 -3.08396,-1.46793 -4.30138,-2.45686 l -2.23218,5.65569 c 1.27154,1.11255 2.94904,2.02411 5.0322,2.7349 2.08316,0.67989 4.26101,1.01951 6.53355,1.01951 2.70539,0 4.93699,-0.46312 6.6955,-1.39024 1.78556,-0.92711 3.12494,-2.14795 4.01772,-3.66224 0.89278,-1.51429 1.33941,-3.18307 1.33941,-5.0064 0,-1.69971 -0.31128,-3.10578 -0.93352,-4.21833 -0.59519,-1.11254 -1.37995,-2.00893 -2.35389,-2.68882 -0.97395,-0.67989 -2.05578,-1.22097 -3.24615,-1.62272 -1.16332,-0.40175 -2.34047,-0.75707 -3.53084,-1.06611 -1.16332,-0.30904 -2.23198,-0.61778 -3.20592,-0.92682 -0.97395,-0.30904 -1.75819,-0.71093 -2.35338,-1.20539 -0.59519,-0.52537 -0.89276,-1.20511 -0.89276,-2.03952 0,-0.71079 0.17539,-1.3288 0.52709,-1.85417 0.3517,-0.55627 0.93369,-1.00472 1.74531,-1.34467 0.81162,-0.33994 1.85288,-0.51001 3.12443,-0.51001 1.27154,0 2.57036,0.21665 3.896,0.6493 1.32565,0.40175 2.65132,1.03545 3.97696,1.90076 l 2.02898,-5.70177 c -1.32565,-0.95803 -2.8541,-1.66917 -4.58556,-2.13273 -1.73145,-0.49446 -3.49008,-0.74146 -5.27564,-0.74146 z m 164.24865,0.26511 c -2.67834,0 -4.91045,0.46363 -6.69602,1.39075 -1.7585,0.89621 -3.08418,2.11653 -3.97697,3.66172 -0.86573,1.51429 -1.29815,3.19876 -1.29815,5.053 0,1.73062 0.29758,3.1524 0.89277,4.26494 0.62224,1.11254 1.42019,2.00841 2.39413,2.6883 0.97396,0.67989 2.04258,1.23615 3.20591,1.6688 1.19037,0.43266 2.36701,0.80366 3.53033,1.1127 1.19037,0.27813 2.27271,0.5874 3.24666,0.92734 0.97395,0.30904 1.75871,0.7261 2.3539,1.25147 0.59519,0.49447 0.89277,1.17422 0.89277,2.03953 0,0.67989 -0.18961,1.28271 -0.56836,1.80808 -0.37876,0.52537 -0.97393,0.94243 -1.78554,1.25147 -0.78458,0.27813 -1.82634,0.41733 -3.12494,0.41733 -1.7044,0 -3.39508,-0.30927 -5.07243,-0.92734 -1.65029,-0.64899 -3.08396,-1.46793 -4.30138,-2.45686 l -2.23218,5.65569 c 1.27154,1.11255 2.94904,2.02411 5.0322,2.7349 2.08316,0.67989 4.26102,1.01951 6.53356,1.01951 2.70539,0 4.93699,-0.46311 6.6955,-1.39023 1.78556,-0.92711 3.12493,-2.14796 4.01771,-3.66225 0.89278,-1.51429 1.33941,-3.18306 1.33941,-5.00639 0,-1.69971 -0.31127,-3.10579 -0.93351,-4.21834 -0.59519,-1.11254 -1.37996,-2.00893 -2.3539,-2.68882 -0.97395,-0.67989 -2.05577,-1.22097 -3.24614,-1.62272 -1.16332,-0.40175 -2.34048,-0.75706 -3.53085,-1.0661 -1.16332,-0.30904 -2.23197,-0.61779 -3.20591,-0.92683 -0.97395,-0.30904 -1.75819,-0.71092 -2.35338,-1.20538 -0.59519,-0.52537 -0.89277,-1.20512 -0.89277,-2.03953 0,-0.71079 0.1754,-1.32879 0.5271,-1.85416 0.3517,-0.55627 0.93368,-1.00472 1.7453,-1.34467 0.81162,-0.33994 1.85288,-0.51001 3.12443,-0.51001 1.27154,0 2.57036,0.21664 3.896,0.64929 1.32565,0.40175 2.65133,1.03545 3.97697,1.90076 l 2.02897,-5.70177 c -1.32565,-0.95803 -2.8541,-1.66917 -4.58556,-2.13273 -1.73145,-0.49446 -3.49007,-0.74145 -5.27563,-0.74145 z m -318.682,0.29099 v 32.44914 h 6.585645 v -32.44914 z m 21.59353,0 v 32.44914 h 6.76719 v -19.48295 l 13.8036,19.48295 h 6.58204 v -32.44914 h -6.76668 v 19.68695 l -14.71854,-19.687 z m 42.78839,0 v 32.44914 h 12.11709 c 2.8959,0 5.4489,-0.66405 7.65892,-1.99292 2.21003,-1.35977 3.93756,-3.24518 5.18229,-5.65569 1.24472,-2.44141 1.86702,-5.30015 1.86702,-8.57596 0,-3.30673 -0.6223,-6.16493 -1.86702,-8.57544 -1.24473,-2.41051 -2.97226,-4.28022 -5.18229,-5.60909 -2.21002,-1.35977 -4.76302,-2.04004 -7.65892,-2.04004 z m 39.64745,0 v 18.17193 c 0,4.75921 1.161,8.42119 3.48287,10.98622 2.32187,2.56503 5.54202,3.8476 9.66057,3.8476 4.11856,0 7.33869,-1.28257 9.66056,-3.8476 2.32187,-2.56503 3.48288,-6.22701 3.48288,-10.98622 v -18.17193 h -6.63361 v 17.89337 c 0,3.09039 -0.56663,5.31542 -1.69992,6.67519 -1.13329,1.35977 -2.72269,2.04005 -4.76814,2.04005 -2.04546,0 -3.63484,-0.68028 -4.76813,-2.04005 -1.13329,-1.35977 -1.69992,-3.5848 -1.69992,-6.67519 v -17.89337 z m 73.44936,0 v 6.1191 h 8.54138 v 26.33004 h 6.17717 v -26.33004 h 8.54138 v -6.1191 z m 36.05833,0 v 32.44914 h 6.40565 v -11.77427 h 4.27043 l 6.91985,11.77427 h 6.91985 l -7.3242,-12.23198 c 0.47924,-0.1227 0.9343,-0.27751 1.36056,-0.47222 1.79254,-0.8188 3.0114,-2.2907 3.98676,-3.81913 0.97534,-1.55573 1.46268,-3.39788 1.46268,-5.52676 0,-3.24792 -1.06761,-5.7863 -3.20283,-7.61496 -2.13523,-1.85595 -5.12695,-2.78409 -8.97564,-2.78409 z m 38.34827,0 v 32.44914 h 6.38708 v -32.44914 z m 22.12166,0 v 32.44914 h 20.89984 v -6.0259 h -14.69173 v -7.50985 h 12.53228 v -5.84105 h -12.53228 v -7.04593 h 14.19042 v -6.02641 z m -46.25476,6.08907 c 0.73811,0.0396 1.35098,0.18878 1.83866,0.62547 0.97536,0.87339 1.46319,2.10149 1.46319,3.68451 0,1.55572 -0.48783,2.78383 -1.46319,3.68451 -0.97536,0.87339 -2.4517,1.30998 -4.42877,1.30998 h -5.21941 v -9.15846 l 5.21941,-0.11598 c 0.98854,0 1.85201,-0.0697 2.59011,-0.03 z m -157.19727,0.0766 h 5.63924 c 1.77818,0 3.31478,0.41706 4.61031,1.25147 1.32094,0.8035 2.33734,1.96259 3.04861,3.47688 0.73668,1.48339 1.10475,3.25995 1.10475,5.33052 0,2.03966 -0.36807,3.81675 -1.10475,5.33104 -0.71127,1.51429 -1.72767,2.68855 -3.04861,3.52296 -1.29553,0.80351 -2.83213,1.20539 -4.61031,1.20539 h -5.63924 z"
       transform="scale(1.0019616,0.99804227)"
       sodipodi:nodetypes="ccccccccccccccccccccscscccccccccccccccccccccccccccccccccccccccccccccccccccccccccccccccccccccccssssscccssssccccccccccccscscsccccccccccccccccccccccccccccccccccccccccccccccccccccsscsccccccccccsccscsccccsscsccccscsscsccscscssccccssccscsccccsscsccccscsscsccscscssccccsccccccccccccccccccsccsscsccsssssccssssscccccccccccccccccccscscsccccccccccccccccccccsscscccscsccsccsccs" /></g></svg>
